<svg xmlns="http://www.w3.org/2000/svg" xmlns:xlink="http://www.w3.org/1999/xlink" version="1.2" baseProfile="tiny" x="0px" y="0px" viewBox="0 0 100 100" xml:space="preserve" fill="#1c0000"><path d="M92.5,25h-5v-2.5c0-1.381-1.119-2.5-2.5-2.5h-9.206c-3.576,0-7.109-0.573-10.501-1.705  c-1.585-0.528-3.235-0.795-4.904-0.795c-3.501,0-6.818,1.164-9.532,3.289C45.917,11.222,35.95,5,25,5c-1.381,0-2.5,1.119-2.5,2.5V20  H15c-1.381,0-2.5,1.119-2.5,2.5V25h-5C6.119,25,5,26.119,5,27.5V90c0,1.381,1.119,2.5,2.5,2.5h35c0,1.381,1.119,2.5,2.5,2.5h10  c1.381,0,2.5-1.119,2.5-2.5h35c1.381,0,2.5-1.119,2.5-2.5V27.5C95,26.119,93.881,25,92.5,25z M52.5,26.036l0.457-0.458  c1.985-1.985,4.625-3.078,7.432-3.078c1.131,0,2.25,0.182,3.324,0.539C67.615,24.34,71.68,25,75.794,25H82.5v52.5h-6.706  c-3.576,0-7.109-0.573-10.501-1.705C63.708,75.268,62.058,75,60.389,75c-2.82,0-5.525,0.748-7.889,2.149V26.036z M27.5,10.131  c8.94,0.939,16.744,6.861,20,15.353v47.7c-4.92-5.985-12.112-9.89-20-10.575V10.131z M17.5,25h5v40c0,1.381,1.119,2.5,2.5,2.5  c6.865,0,13.271,2.948,17.754,7.817c-2.621-0.537-5.448-0.387-8.048,0.479c-3.392,1.131-6.925,1.704-10.501,1.704H17.5V25z M90,87.5  H55c-1.381,0-2.5,1.119-2.5,2.5h-5c0-1.381-1.119-2.5-2.5-2.5H10V30h2.5v50c0,1.381,1.119,2.5,2.5,2.5h9.206  c4.114,0,8.179-0.66,12.082-1.96C37.362,80.182,38.48,80,39.611,80c2.807,0,5.446,1.093,7.432,3.078l1.189,1.189  c0.957,0.957,2.575,0.96,3.535,0l1.189-1.189C54.942,81.093,57.582,80,60.389,80c1.131,0,2.25,0.182,3.324,0.539  C67.615,81.84,71.68,82.5,75.794,82.5H85c1.381,0,2.5-1.119,2.5-2.5V30H90V87.5z"></path></svg>