<svg xmlns="http://www.w3.org/2000/svg" xmlns:xlink="http://www.w3.org/1999/xlink" version="1.2" baseProfile="tiny" x="0px" y="0px" viewBox="0 0 100 100" xml:space="preserve" fill="#1c0000"><path d="M85,82.5v-65C85,10.607,79.393,5,72.5,5h-45C20.607,5,15,10.607,15,17.5v65C15,89.393,20.607,95,27.5,95h45  C79.393,95,85,89.393,85,82.5z M20,82.5v-65c0-4.136,3.364-7.5,7.5-7.5h45c4.136,0,7.5,3.364,7.5,7.5v65c0,4.136-3.364,7.5-7.5,7.5  h-45C23.364,90,20,86.636,20,82.5z"></path><path d="M27.5,60h45c1.381,0,2.5-1.119,2.5-2.5v-40c0-1.381-1.119-2.5-2.5-2.5h-45c-1.381,0-2.5,1.119-2.5,2.5v40  C25,58.881,26.119,60,27.5,60z M30,20h40v35H30V20z"></path><path d="M75,80c0-2.757-2.243-5-5-5s-5,2.243-5,5s2.243,5,5,5S75,82.757,75,80z"></path><path d="M60,65c-2.757,0-5,2.243-5,5s2.243,5,5,5s5-2.243,5-5S62.757,65,60,65z"></path><path d="M42.5,72.5h-5v-5c0-1.381-1.119-2.5-2.5-2.5s-2.5,1.119-2.5,2.5v5h-5c-1.381,0-2.5,1.119-2.5,2.5s1.119,2.5,2.5,2.5h5v5  c0,1.381,1.119,2.5,2.5,2.5s2.5-1.119,2.5-2.5v-5h5c1.381,0,2.5-1.119,2.5-2.5S43.881,72.5,42.5,72.5z"></path></svg>