<svg xmlns="http://www.w3.org/2000/svg" width="100" height="100">
  <path d="M57.5 90a2.5 2.5 0 0 0 2.5-2.5V70h7.5a2.5 2.5 0 1 0 0-5H65V50c0-8.271-6.729-15-15-15s-15 6.729-15 15v15h-2.5a2.5 2.5 0 1 0 0 5H40v22.5a2.5 2.5 0 1 0 5 0V70h10v17.5a2.5 2.5 0 0 0 2.5 2.5zM40 65V50c0-5.514 4.486-10 10-10s10 4.486 10 10v15H40zm9.97-50a2.5 2.5 0 1 0 2.51 2.5 2.516 2.516 0 0 0-2.51-2.5z"/>
  <circle cx="7.5" cy="50" r="2.5"/>
  <circle cx="17.5" cy="50" r="2.5"/>
  <circle cx="19.082" cy="40" r="2.5"/>
  <circle cx="8.725" cy="39.758" r="2.5"/>
  <circle cx="23.7" cy="30.9" r="2.5"/>
  <circle cx="12.355" cy="30.252" r="2.5"/>
  <circle cx="18.18" cy="21.83" r="2.5"/>
  <circle cx="30.886" cy="23.71" r="2.5"/>
  <circle cx="39.937" cy="19.072" r="2.5"/>
  <circle cx="34.902" cy="10.31" r="2.5"/>
  <circle cx="44.845" cy="7.736" r="2.5"/>
  <circle cx="92.46" cy="49.979" r="2.5"/>
  <circle cx="82.46" cy="49.979" r="2.5"/>
  <circle cx="80.878" cy="39.979" r="2.5"/>
  <circle cx="91.235" cy="39.737" r="2.5"/>
  <circle cx="76.26" cy="30.879" r="2.5"/>
  <circle cx="87.605" cy="30.231" r="2.5"/>
  <circle cx="81.78" cy="21.809" r="2.5"/>
  <circle cx="69.074" cy="23.69" r="2.5"/>
  <circle cx="60.022" cy="19.051" r="2.5"/>
  <circle cx="65.058" cy="10.289" r="2.5"/>
  <circle cx="55.115" cy="7.716" r="2.5"/>
  <circle cx="25.84" cy="15.029" r="2.5"/>
  <circle cx="74.12" cy="15.029" r="2.5"/>
</svg>
