<svg xmlns="http://www.w3.org/2000/svg" xmlns:xlink="http://www.w3.org/1999/xlink" version="1.1" x="0px" y="0px" viewBox="0 0 100 100" style="enable-background:new 0 0 100 100;" xml:space="preserve" fill="#1c0000"><path d="M8.232,91.768C8.72,92.256,9.36,92.5,10,92.5s1.28-0.244,1.768-0.732L15,88.535l1.232,1.232   c0.48,0.48,1.12,0.732,1.768,0.732c0.384,0,0.771-0.088,1.13-0.27l18.25-9.25c0.024-0.012,0.041-0.034,0.065-0.047   c0.204-0.112,0.4-0.243,0.572-0.415l48.75-48.75c0.977-0.976,0.977-2.559,0-3.535l-1.982-1.982l6.982-6.982   c0.977-0.976,0.977-2.559,0-3.535l-7.5-7.5c-0.976-0.977-2.56-0.977-3.535,0l-6.982,6.982l-1.982-1.982   c-0.976-0.977-2.56-0.977-3.535,0l-1.982,1.982l-0.947-0.947c-2.924-2.925-7.683-2.925-10.606,0L40.732,28.232   c-0.977,0.976-0.977,2.559,0,3.535C41.22,32.256,41.86,32.5,42.5,32.5s1.28-0.244,1.768-0.732l13.964-13.964   c0.976-0.975,2.561-0.975,3.536,0l0.947,0.947L19.482,61.982c-0.173,0.173-0.304,0.368-0.415,0.572   c-0.013,0.024-0.035,0.041-0.047,0.065L9.77,80.87c-0.489,0.964-0.302,2.134,0.462,2.898L11.465,85l-3.232,3.232   C7.256,89.208,7.256,90.792,8.232,91.768z M82.5,13.536l3.964,3.964l-5.214,5.215l-3.965-3.965L82.5,13.536z M70,18.536L81.464,30   L36.25,75.215L24.785,63.75L70,18.536z M21.921,67.956l10.123,10.123l-13.557,6.872l-3.437-3.437L21.921,67.956z"></path></svg>