<svg xmlns="http://www.w3.org/2000/svg" xmlns:xlink="http://www.w3.org/1999/xlink" version="1.2" baseProfile="tiny" x="0px" y="0px" viewBox="0 0 100 100" xml:space="preserve" fill="#1c0000"><path d="M17.5,72.493c0,0.002,0,0.005,0,0.007c0,6.39,4.819,11.675,11.014,12.412C30.452,89.46,34.938,92.5,40,92.5   c4.091,0,7.718-1.984,10-5.032c2.282,3.047,5.909,5.032,10,5.032c5.062,0,9.548-3.04,11.486-7.588   C77.681,84.175,82.5,78.89,82.5,72.5c0-0.002,0-0.005,0-0.007c3.118-2.344,5-6.042,5-9.993c0-2.195-0.588-4.358-1.681-6.25   C86.912,54.358,87.5,52.195,87.5,50c0-4.105-1.959-7.836-5.226-10.159c0.15-0.773,0.226-1.556,0.226-2.341   c0-3.951-1.882-7.649-5-9.993c0-0.002,0-0.005,0-0.007c0-4.074-2.005-7.884-5.303-10.212C70.947,11.629,65.905,7.5,60,7.5   c-4.091,0-7.718,1.984-10,5.032C47.718,9.484,44.091,7.5,40,7.5c-5.904,0-10.947,4.129-12.197,9.788   C24.504,19.616,22.5,23.426,22.5,27.5c0,0.002,0,0.005,0,0.007c-3.118,2.344-5,6.042-5,9.993c0,0.786,0.075,1.568,0.226,2.341   C14.459,42.164,12.5,45.895,12.5,50c0,2.195,0.588,4.358,1.681,6.25c-1.093,1.892-1.681,4.055-1.681,6.25   C12.5,66.451,14.382,70.149,17.5,72.493z M52.5,76.545l2.034-1.017C55.225,75.183,55.998,75,56.771,75H60   c1.381,0,2.5-1.119,2.5-2.5S61.381,70,60,70h-3.229c-1.471,0-2.94,0.341-4.271,0.969V54.076c2.356-1.031,4.929-1.576,7.5-1.576   c1.381,0,2.5-1.119,2.5-2.5s-1.119-2.5-2.5-2.5c-2.543,0-5.085,0.427-7.5,1.232V30.78c1.642,1.117,3.577,1.72,5.606,1.72H62.5   c1.381,0,2.5-1.119,2.5-2.5s-1.119-2.5-2.5-2.5h-4.394c-1.335,0-2.591-0.52-3.536-1.464l-2.07-2.071V20c0-4.136,3.364-7.5,7.5-7.5   c3.223,0,6.011,2.054,7.052,4.98l-4.534-0.031c-0.007,0-0.012,0-0.018,0c-1.373,0-2.49,1.108-2.5,2.483   c-0.01,1.381,1.103,2.508,2.482,2.517l7.421,0.051c0.007,0,0.012,0,0.018,0c0.198,0,0.389-0.029,0.574-0.073   c1.262,1.367,2.005,3.168,2.005,5.073c0,0.101-0.007,0.212-0.013,0.323l-2.832,3.582c-1.368,1.73-2.127,3.89-2.151,6.095H60   c-1.381,0-2.5,1.119-2.5,2.5s1.119,2.5,2.5,2.5h7.5V45c0,1.381,1.119,2.5,2.5,2.5s2.5-1.119,2.5-2.5v-7.394   c0-1.121,0.383-2.222,1.077-3.101l1.773-2.243c1.354,1.384,2.15,3.256,2.15,5.237c0,0.886-0.163,1.771-0.486,2.63   c-0.453,1.208,0.088,2.564,1.249,3.127C80.876,44.526,82.5,47.109,82.5,50c0,0.866-0.146,1.707-0.428,2.5H72.5   c-1.381,0-2.5,1.119-2.5,2.5s1.119,2.5,2.5,2.5h8.139c0.063,0.108,0.13,0.214,0.211,0.314c1.08,1.346,1.65,2.966,1.65,4.686   c0,1.693-0.579,3.309-1.592,4.607C79.127,64.341,76.027,62.5,72.5,62.5h-5c-1.379,0-2.5-1.122-2.5-2.5c0-1.381-1.119-2.5-2.5-2.5   S60,58.619,60,60c0,4.136,3.364,7.5,7.5,7.5h5c2.757,0,5,2.243,5,5c0,3.441-2.332,6.341-5.507,7.219l-0.792-3.959   c-0.271-1.355-1.598-2.229-2.941-1.961c-1.354,0.271-2.232,1.588-1.961,2.942l1,4.999c-0.013,0.042-0.033,0.081-0.044,0.124   C66.404,85.182,63.422,87.5,60,87.5c-0.457,0-0.903-0.048-1.338-0.126l3.106-3.106c0.977-0.976,0.977-2.559,0-3.535   c-0.977-0.977-2.559-0.977-3.535,0l-4.025,4.025C53.141,83.462,52.5,81.805,52.5,80V76.545z M25,52.5h-7.072   C17.646,51.707,17.5,50.866,17.5,50c0-2.891,1.624-5.474,4.237-6.743c1.161-0.563,1.702-1.919,1.249-3.127   c-0.323-0.859-0.486-1.744-0.486-2.63c0-1.836,0.691-3.571,1.868-4.919l4.981,8.381c0.06,0.099,0.125,0.194,0.197,0.285   c0.475,0.593,1.008,1.123,1.587,1.585l-2.901,2.901c-0.977,0.976-0.977,2.559,0,3.535C28.721,49.756,29.36,50,30,50   s1.279-0.244,1.768-0.732l4.349-4.349c0.408,0.05,0.82,0.081,1.238,0.081H40c1.381,0,2.5-1.119,2.5-2.5S41.381,40,40,40h-2.646   c-1.475,0-2.853-0.638-3.805-1.756l-6.014-10.121C27.515,27.897,27.5,27.687,27.5,27.5c0-2.483,1.254-4.792,3.294-6.183   l4.338,2.169c0.359,0.18,0.74,0.265,1.116,0.265c0.917,0,1.8-0.506,2.238-1.382c0.617-1.235,0.116-2.737-1.118-3.354l-4.195-2.098   C34.356,14.294,36.988,12.5,40,12.5c4.136,0,7.5,3.364,7.5,7.5v9.22c-1.642-1.117-3.577-1.72-5.606-1.72H40   c-1.381,0-2.5,1.119-2.5,2.5s1.119,2.5,2.5,2.5h1.894c1.335,0,2.591,0.52,3.536,1.464l2.07,2.071v14.83   c-2.1,0.628-4.398,0.461-6.382-0.531c-1.237-0.62-2.736-0.118-3.354,1.118c-0.617,1.235-0.116,2.737,1.118,3.354   c1.916,0.958,4.017,1.437,6.118,1.437c0.838,0,1.674-0.098,2.5-0.25V65h-5.365c-1.906,0-3.619-1.059-4.472-2.764l-1.677-3.354   c-0.618-1.236-2.119-1.735-3.354-1.119c-1.234,0.618-1.735,2.119-1.118,3.354l1.677,3.354C34.896,67.882,38.322,70,42.135,70H47.5   v10c0,3.258-2.092,6.03-5,7.063v-3.956c0-2.671-1.04-5.182-2.929-7.071l-2.804-2.803c-0.977-0.976-2.561-0.976-3.535,0   c-0.977,0.977-0.977,2.559,0,3.536l2.803,2.803c0.944,0.944,1.465,2.2,1.465,3.536v3.961c-2.301-0.816-4.121-2.731-4.755-5.204   c-0.284-1.109-1.283-1.879-2.421-1.879c-0.03,0-0.061,0-0.091,0.001L30,80c-4.136,0-7.5-3.364-7.5-7.5   c0-0.07,0.006-0.149,0.009-0.224l4.259-4.259c0.977-0.976,0.977-2.559,0-3.535c-0.977-0.977-2.559-0.977-3.535,0L19.814,67.9   c-1.455-1.398-2.314-3.34-2.314-5.4c0-1.72,0.57-3.34,1.65-4.686c0.08-0.1,0.148-0.206,0.211-0.314H25c1.381,0,2.5-1.119,2.5-2.5   S26.381,52.5,25,52.5z"></path></svg>