<svg xmlns="http://www.w3.org/2000/svg" xmlns:xlink="http://www.w3.org/1999/xlink" version="1.2" baseProfile="tiny" x="0px" y="0px" viewBox="0 0 100 100" xml:space="preserve" fill="#1c0000"><path d="M10,90h80c1.381,0,2.5-1.119,2.5-2.5v-70c0-4.136-3.364-7.5-7.5-7.5H15c-4.136,0-7.5,3.364-7.5,7.5v70   C7.5,88.881,8.619,90,10,90z M12.5,85V30h75v55H12.5z M15,15h70c1.379,0,2.5,1.121,2.5,2.5V25h-75v-7.5   C12.5,16.121,13.621,15,15,15z"></path><path d="M31.768,45.732l-7.5-7.5c-0.977-0.977-2.559-0.977-3.535,0s-0.977,2.559,0,3.535l5.732,5.732l-5.732,5.732   c-0.977,0.977-0.977,2.559,0,3.535C21.221,57.256,21.86,57.5,22.5,57.5s1.279-0.244,1.768-0.732l7.5-7.5   C32.744,48.291,32.744,46.709,31.768,45.732z"></path><path d="M50,57.5H35c-1.381,0-2.5,1.119-2.5,2.5s1.119,2.5,2.5,2.5h15c1.381,0,2.5-1.119,2.5-2.5S51.381,57.5,50,57.5z"></path></svg>